<?xml version="1.0" encoding="UTF-8" standalone="no"?>
<svg
   id="Layer_2"
   data-name="Layer 2"
   viewBox="0 0 721.5339 134.64"
   version="1.1"
   sodipodi:docname="logo-full.svg"
   inkscape:version="1.2.2 (b0a8486541, 2022-12-01)"
   width="721.53387"
   height="134.64"
   xmlns:inkscape="http://www.inkscape.org/namespaces/inkscape"
   xmlns:sodipodi="http://sodipodi.sourceforge.net/DTD/sodipodi-0.dtd"
   xmlns="http://www.w3.org/2000/svg"
   xmlns:svg="http://www.w3.org/2000/svg">
  <sodipodi:namedview
     id="namedview45"
     pagecolor="#ffffff"
     bordercolor="#000000"
     borderopacity="0.25"
     inkscape:showpageshadow="2"
     inkscape:pageopacity="0.0"
     inkscape:pagecheckerboard="0"
     inkscape:deskcolor="#d1d1d1"
     showgrid="false"
     inkscape:zoom="1.4240944"
     inkscape:cx="415.35168"
     inkscape:cy="56.878252"
     inkscape:window-width="1920"
     inkscape:window-height="992"
     inkscape:window-x="1920"
     inkscape:window-y="550"
     inkscape:window-maximized="1"
     inkscape:current-layer="Layer_2" />
  <defs
     id="defs4">
    <style
       id="style2">
      .cls-1 {
        letter-spacing: .08em;
      }

      .cls-2 {
        font-family: Outfit-ExtraBold, Outfit;
        font-size: 56px;
        font-weight: 700;
      }

      .cls-2, .cls-3 {
        fill: #f6f6f6;
      }

      .cls-4 {
        letter-spacing: .09em;
      }

      .cls-5 {
        letter-spacing: .08em;
      }

      .cls-6 {
        fill: #e2e2e2;
        font-family: Outfit-Regular, Outfit;
        font-size: 36px;
        letter-spacing: .1em;
      }

      .cls-7 {
        letter-spacing: .08em;
      }

      .cls-8 {
        fill: #ffc801;
      }
    </style>
  </defs>
  <g
     id="Layer_3"
     data-name="Layer 3"
     transform="translate(0,-5.2)">
    <g
       aria-label="VOST"
       transform="translate(358.51,46.93)"
       id="text14"
       class="cls-2"
       style="font-weight:700;font-size:56px;font-family:Outfit-ExtraBold, Outfit;fill:#f6f6f6">
      <path
         d="M 36.4,-39.984 22.792,0 h -9.24 L 0,-39.984 h 8.568 l 7.504,23.8 q 0.224,0.616 0.616,2.296 0.448,1.624 0.896,3.472 0.448,1.792 0.616,3.024 0.168,-1.232 0.56,-3.024 0.448,-1.848 0.896,-3.472 0.448,-1.68 0.616,-2.296 l 7.56,-23.8 z"
         style="letter-spacing:0.08em;fill:#2a2e46;fill-opacity:1"
         id="path274" />
      <path
         d="m 85.958001,-20.048 q 0,6.216 -2.072,10.864 -2.016,4.592 -6.216,7.168 -4.2,2.576 -10.752,2.576 -6.496,0 -10.752,-2.576 -4.2,-2.576 -6.272,-7.224 -2.016,-4.648 -2.016,-10.864 0,-6.216 2.016,-10.808 2.072,-4.592 6.272,-7.112 4.256,-2.576 10.808,-2.576 6.496,0 10.696,2.576 4.2,2.52 6.216,7.168 2.072,4.592 2.072,10.808 z m -29.176,0 q 0,6.272 2.408,9.912 2.408,3.584 7.728,3.584 5.432,0 7.784,-3.584 2.352,-3.64 2.352,-9.912 0,-6.328 -2.352,-9.912 -2.352,-3.584 -7.728,-3.584 -5.376,0 -7.784,3.584 -2.408,3.584 -2.408,9.912 z"
         style="letter-spacing:0.09em;fill:#2a2e46;fill-opacity:1"
         id="path276" />
      <path
         d="m 123.476,-11.088 q 0,5.32 -3.864,8.512 -3.808,3.136 -10.864,3.136 -6.328,0 -11.311999,-2.408 v -7.896 q 2.855999,1.232 5.879999,2.296 3.08,1.008 6.104,1.008 3.136,0 4.424,-1.176 1.344,-1.232 1.344,-3.08 0,-1.512 -1.064,-2.576 -1.008,-1.064 -2.744,-1.96 -1.736,-0.952 -3.976,-2.016 -1.4,-0.672 -3.024,-1.568 -1.624,-0.952 -3.136,-2.296 -1.455999,-1.4 -2.407999,-3.36 -0.952,-1.96 -0.952,-4.704 0,-5.376 3.639999,-8.344 3.64,-3.024 9.912,-3.024 3.136,0 5.936,0.728 2.856,0.728 5.936,2.072 l -2.744,6.608 q -2.744,-1.12 -4.928,-1.736 -2.184,-0.616 -4.48,-0.616 -2.408,0 -3.696,1.12 -1.288,1.12 -1.288,2.912 0,2.128 1.904,3.36 1.904,1.232 5.656,3.024 3.08,1.456 5.208,3.024 2.184,1.568 3.36,3.696 1.176,2.128 1.176,5.264 z"
         style="letter-spacing:0.08em;fill:#2a2e46;fill-opacity:1"
         id="path278" />
      <path
         d="m 152.94,0 h -8.456 V -32.928 H 133.62 v -7.056 h 30.184 v 7.056 H 152.94 Z"
         style="letter-spacing:0.08em;fill:#2a2e46;fill-opacity:1"
         id="path280" />
    </g>
    <g
       aria-label="Club video del’Enseirb Matmeca"
       transform="translate(358.51,91.48)"
       id="text20"
       class="cls-6"
       style="font-size:36px;font-family:Outfit-Regular, Outfit;letter-spacing:0.1em;fill:#2a2e46;fill-opacity:1">
      <path
         d="m 14.508,-23.22 q -4.14,0 -6.516,2.772 -2.376,2.772 -2.376,7.596 0,4.788 2.196,7.596 2.232,2.772 6.66,2.772 1.692,0 3.204,-0.288 1.512,-0.288 2.952,-0.72 v 2.808 q -1.44,0.54 -2.988,0.792 -1.512,0.252 -3.636,0.252 -3.924,0 -6.552,-1.62 -2.628,-1.62 -3.96,-4.608 -1.296,-2.988 -1.296,-7.02 0,-3.888 1.404,-6.84 1.44,-2.988 4.212,-4.644 2.772,-1.692 6.732,-1.692 4.068,0 7.092,1.512 l -1.296,2.736 q -1.188,-0.54 -2.664,-0.972 -1.44,-0.432 -3.168,-0.432 z"
         id="path283"
         style="fill:#2a2e46;fill-opacity:1" />
      <path
         d="m 32.579999,0 h -3.168 v -27.36 h 3.168 z"
         id="path285"
         style="fill:#2a2e46;fill-opacity:1" />
      <path
         d="M 58.427979,-19.296 V 0 h -2.592 l -0.468,-2.556 h -0.144 q -0.936,1.512 -2.592,2.232 -1.656,0.684 -3.528,0.684 -3.492,0 -5.256,-1.656 -1.764,-1.692 -1.764,-5.364 v -12.636 h 3.204 v 12.42 q 0,4.608 4.284,4.608 3.204,0 4.428,-1.8 1.26,-1.8 1.26,-5.184 v -10.044 z"
         id="path287"
         style="fill:#2a2e46;fill-opacity:1" />
      <path
         d="m 71.315982,-20.7 q 0,1.224 -0.072,2.304 -0.036,1.044 -0.108,1.656 h 0.18 q 0.828,-1.224 2.268,-2.052 1.44,-0.828 3.708,-0.828 3.6,0 5.76,2.52 2.196,2.484 2.196,7.452 0,4.968 -2.196,7.488 -2.196,2.52 -5.76,2.52 -2.268,0 -3.708,-0.828 -1.44,-0.828 -2.268,-1.98 h -0.252 L 70.415982,0 h -2.268 v -27.36 h 3.168 z m 5.436,3.708 q -3.06,0 -4.248,1.764 -1.188,1.764 -1.188,5.472 v 0.144 q 0,3.564 1.152,5.472 1.188,1.872 4.356,1.872 2.592,0 3.852,-1.908 1.296,-1.908 1.296,-5.508 0,-7.308 -5.22,-7.308 z"
         id="path289"
         style="fill:#2a2e46;fill-opacity:1" />
      <path
         d="m 111.09598,0 -7.308,-19.296 h 3.384 l 4.104,11.376 q 0.288,0.792 0.612,1.764 0.324,0.972 0.576,1.872 0.252,0.864 0.36,1.476 h 0.144 q 0.144,-0.612 0.396,-1.512 0.288,-0.9 0.612,-1.872 0.36,-0.972 0.612,-1.728 l 4.104,-11.376 h 3.384 L 114.73198,0 Z"
         id="path291"
         style="fill:#2a2e46;fill-opacity:1" />
      <path
         d="m 130.35596,-26.532 q 0.72,0 1.26,0.504 0.576,0.468 0.576,1.512 0,1.008 -0.576,1.512 -0.54,0.504 -1.26,0.504 -0.792,0 -1.332,-0.504 -0.54,-0.504 -0.54,-1.512 0,-1.044 0.54,-1.512 0.54,-0.504 1.332,-0.504 z m 1.548,7.236 V 0 h -3.168 v -19.296 z"
         id="path293"
         style="fill:#2a2e46;fill-opacity:1" />
      <path
         d="m 148.46393,0.36 q -3.6,0 -5.76,-2.484 -2.16,-2.52 -2.16,-7.488 0,-4.968 2.16,-7.488 2.196,-2.556 5.796,-2.556 2.232,0 3.636,0.828 1.44,0.828 2.34,2.016 h 0.216 q -0.036,-0.468 -0.144,-1.368 -0.072,-0.936 -0.072,-1.476 v -7.704 h 3.168 V 0 h -2.556 l -0.468,-2.592 h -0.144 q -0.864,1.224 -2.304,2.088 -1.44,0.864 -3.708,0.864 z m 0.504,-2.628 q 3.06,0 4.284,-1.656 1.26,-1.692 1.26,-5.076 v -0.576 q 0,-3.6 -1.188,-5.508 -1.188,-1.944 -4.392,-1.944 -2.556,0 -3.852,2.052 -1.26,2.016 -1.26,5.436 0,3.456 1.26,5.364 1.296,1.908 3.888,1.908 z"
         id="path295"
         style="fill:#2a2e46;fill-opacity:1" />
      <path
         d="m 174.81592,-19.656 q 2.484,0 4.248,1.08 1.8,1.08 2.736,3.06 0.972,1.944 0.972,4.572 v 1.908 h -13.212 q 0.072,3.276 1.656,5.004 1.62,1.692 4.5,1.692 1.836,0 3.24,-0.324 1.44,-0.36 2.952,-1.008 V -0.9 q -1.476,0.648 -2.916,0.936 -1.44,0.324 -3.42,0.324 -2.736,0 -4.86,-1.116 -2.088,-1.116 -3.276,-3.312 -1.152,-2.232 -1.152,-5.436 0,-3.168 1.044,-5.436 1.08,-2.268 2.988,-3.492 1.944,-1.224 4.5,-1.224 z m -0.036,2.592 q -2.268,0 -3.6,1.476 -1.296,1.44 -1.548,4.032 h 9.828 q -0.036,-2.448 -1.152,-3.96 -1.116,-1.548 -3.528,-1.548 z"
         id="path297"
         style="fill:#2a2e46;fill-opacity:1" />
      <path
         d="m 208.0439,-9.684 q 0,4.788 -2.448,7.416 -2.412,2.628 -6.552,2.628 -2.556,0 -4.572,-1.152 -1.98,-1.188 -3.132,-3.42 -1.152,-2.268 -1.152,-5.472 0,-4.788 2.412,-7.38 2.412,-2.592 6.552,-2.592 2.628,0 4.608,1.188 2.016,1.152 3.132,3.384 1.152,2.196 1.152,5.4 z m -14.58,0 q 0,3.42 1.332,5.436 1.368,1.98 4.32,1.98 2.916,0 4.284,-1.98 1.368,-2.016 1.368,-5.436 0,-3.42 -1.368,-5.364 -1.368,-1.944 -4.32,-1.944 -2.952,0 -4.284,1.944 -1.332,1.944 -1.332,5.364 z"
         id="path299"
         style="fill:#2a2e46;fill-opacity:1" />
      <path
         d="m 236.4479,0.36 q -3.6,0 -5.76,-2.484 -2.16,-2.52 -2.16,-7.488 0,-4.968 2.16,-7.488 2.196,-2.556 5.796,-2.556 2.232,0 3.636,0.828 1.44,0.828 2.34,2.016 h 0.216 q -0.036,-0.468 -0.144,-1.368 -0.072,-0.936 -0.072,-1.476 v -7.704 h 3.168 V 0 h -2.556 l -0.468,-2.592 h -0.144 q -0.864,1.224 -2.304,2.088 -1.44,0.864 -3.708,0.864 z m 0.504,-2.628 q 3.06,0 4.284,-1.656 1.26,-1.692 1.26,-5.076 v -0.576 q 0,-3.6 -1.188,-5.508 -1.188,-1.944 -4.392,-1.944 -2.556,0 -3.852,2.052 -1.26,2.016 -1.26,5.436 0,3.456 1.26,5.364 1.296,1.908 3.888,1.908 z"
         id="path301"
         style="fill:#2a2e46;fill-opacity:1" />
      <path
         d="m 262.79989,-19.656 q 2.484,0 4.248,1.08 1.8,1.08 2.736,3.06 0.972,1.944 0.972,4.572 v 1.908 h -13.212 q 0.072,3.276 1.656,5.004 1.62,1.692 4.5,1.692 1.836,0 3.24,-0.324 1.44,-0.36 2.952,-1.008 V -0.9 q -1.476,0.648 -2.916,0.936 -1.44,0.324 -3.42,0.324 -2.736,0 -4.86,-1.116 -2.088,-1.116 -3.276,-3.312 -1.152,-2.232 -1.152,-5.436 0,-3.168 1.044,-5.436 1.08,-2.268 2.988,-3.492 1.944,-1.224 4.5,-1.224 z m -0.036,2.592 q -2.268,0 -3.6,1.476 -1.296,1.44 -1.548,4.032 h 9.828 q -0.036,-2.448 -1.152,-3.96 -1.116,-1.548 -3.528,-1.548 z"
         id="path303"
         style="fill:#2a2e46;fill-opacity:1" />
      <path
         d="M 6.228,48 H 3.06 V 20.64 h 3.168 z"
         id="path305"
         style="fill:#2a2e46;fill-opacity:1" />
      <path
         d="m 18.75598,22.692 q -0.468,1.872 -1.368,4.212 -0.864,2.304 -1.728,4.212 h -2.34 q 0.36,-1.368 0.684,-2.916 0.36,-1.584 0.648,-3.096 0.288,-1.548 0.468,-2.808 h 3.384 z"
         id="path307"
         style="fill:#2a2e46;fill-opacity:1" />
      <path
         d="m 40.643952,48 h -14.364 V 22.296 h 14.364 v 2.844 h -11.124 v 8.028 h 10.476 v 2.808 h -10.476 v 9.18 h 11.124 z"
         id="path309"
         style="fill:#2a2e46;fill-opacity:1" />
      <path
         d="m 58.751942,28.344 q 3.456,0 5.22,1.692 1.764,1.656 1.764,5.4 V 48 h -3.132 V 35.652 q 0,-4.644 -4.32,-4.644 -3.204,0 -4.428,1.8 -1.224,1.8 -1.224,5.184 V 48 h -3.168 V 28.704 h 2.556 l 0.468,2.628 h 0.18 q 0.936,-1.512 2.592,-2.232 1.656,-0.756 3.492,-0.756 z"
         id="path311"
         style="fill:#2a2e46;fill-opacity:1" />
      <path
         d="m 87.875945,42.672 q 0,2.808 -2.088,4.248 -2.088,1.44 -5.616,1.44 -2.016,0 -3.492,-0.324 -1.44,-0.324 -2.556,-0.9 v -2.88 q 1.152,0.576 2.772,1.08 1.656,0.468 3.348,0.468 2.412,0 3.492,-0.756 1.08,-0.792 1.08,-2.088 0,-0.72 -0.396,-1.296 -0.396,-0.576 -1.44,-1.152 -1.008,-0.576 -2.916,-1.296 -1.872,-0.72 -3.204,-1.44 -1.332,-0.72 -2.052,-1.728 -0.72,-1.008 -0.72,-2.592 0,-2.448 1.98,-3.78 2.016,-1.332 5.256,-1.332 1.764,0 3.276,0.36 1.548,0.324 2.88,0.936 l -1.08,2.52 q -1.224,-0.504 -2.556,-0.864 -1.332,-0.36 -2.736,-0.36 -1.944,0 -2.988,0.648 -1.008,0.612 -1.008,1.692 0,0.792 0.468,1.368 0.468,0.54 1.548,1.08 1.116,0.504 2.952,1.224 1.836,0.684 3.132,1.404 1.296,0.72 1.98,1.764 0.684,1.008 0.684,2.556 z"
         id="path313"
         style="fill:#2a2e46;fill-opacity:1" />
      <path
         d="m 103.60795,28.344 q 2.484,0 4.248,1.08 1.8,1.08 2.736,3.06 0.972,1.944 0.972,4.572 v 1.908 H 98.351947 q 0.072,3.276 1.656003,5.004 1.62,1.692 4.5,1.692 1.836,0 3.24,-0.324 1.44,-0.36 2.952,-1.008 V 47.1 q -1.476,0.648 -2.916,0.936 -1.44,0.324 -3.42,0.324 -2.736,0 -4.860003,-1.116 -2.088,-1.116 -3.276,-3.312 -1.152,-2.232 -1.152,-5.436 0,-3.168 1.044,-5.436 1.08,-2.268 2.988,-3.492 1.944003,-1.224 4.500003,-1.224 z m -0.036,2.592 q -2.268,0 -3.600003,1.476 -1.296,1.44 -1.548,4.032 h 9.828003 q -0.036,-2.448 -1.152,-3.96 -1.116,-1.548 -3.528,-1.548 z"
         id="path315"
         style="fill:#2a2e46;fill-opacity:1" />
      <path
         d="m 121.67992,21.468 q 0.72,0 1.26,0.504 0.576,0.468 0.576,1.512 0,1.008 -0.576,1.512 -0.54,0.504 -1.26,0.504 -0.792,0 -1.332,-0.504 -0.54,-0.504 -0.54,-1.512 0,-1.044 0.54,-1.512 0.54,-0.504 1.332,-0.504 z m 1.548,7.236 V 48 h -3.168 V 28.704 Z"
         id="path317"
         style="fill:#2a2e46;fill-opacity:1" />
      <path
         d="m 141.94789,28.344 q 0.54,0 1.152,0.072 0.648,0.036 1.116,0.144 l -0.396,2.916 q -0.468,-0.108 -1.044,-0.18 -0.54,-0.072 -1.044,-0.072 -1.476,0 -2.772,0.828 -1.296,0.792 -2.088,2.268 -0.756,1.44 -0.756,3.384 V 48 h -3.168 V 28.704 h 2.592 l 0.36,3.528 h 0.144 q 0.936,-1.584 2.412,-2.736 1.476,-1.152 3.492,-1.152 z"
         id="path319"
         style="fill:#2a2e46;fill-opacity:1" />
      <path
         d="m 154.5839,27.3 q 0,1.224 -0.072,2.304 -0.036,1.044 -0.108,1.656 h 0.18 q 0.828,-1.224 2.268,-2.052 1.44,-0.828 3.708,-0.828 3.6,0 5.76,2.52 2.196,2.484 2.196,7.452 0,4.968 -2.196,7.488 -2.196,2.52 -5.76,2.52 -2.268,0 -3.708,-0.828 -1.44,-0.828 -2.268,-1.98 h -0.252 L 153.6839,48 h -2.268 V 20.64 h 3.168 z m 5.436,3.708 q -3.06,0 -4.248,1.764 -1.188,1.764 -1.188,5.472 v 0.144 q 0,3.564 1.152,5.472 1.188,1.872 4.356,1.872 2.592,0 3.852,-1.908 1.296,-1.908 1.296,-5.508 0,-7.308 -5.22,-7.308 z"
         id="path321"
         style="fill:#2a2e46;fill-opacity:1" />
      <path
         d="m 201.88791,48 -8.46,-22.536 h -0.144 q 0.108,1.116 0.18,3.024 0.072,1.872 0.072,3.924 V 48 h -2.988 V 22.296 h 4.788 l 7.92,21.06 h 0.144 l 8.064,-21.06 h 4.752 V 48 h -3.204 V 32.196 q 0,-1.872 0.072,-3.708 0.108,-1.836 0.18,-2.988 h -0.144 l -8.568,22.5 z"
         id="path323"
         style="fill:#2a2e46;fill-opacity:1" />
      <path
         d="m 233.67589,28.38 q 3.528,0 5.22,1.548 1.692,1.548 1.692,4.932 V 48 h -2.304 l -0.612,-2.736 h -0.144 q -1.26,1.584 -2.664,2.34 -1.368,0.756 -3.816,0.756 -2.628,0 -4.356,-1.368 -1.728,-1.404 -1.728,-4.356 0,-2.88 2.268,-4.428 2.268,-1.584 6.984,-1.728 l 3.276,-0.108 V 35.22 q 0,-2.412 -1.044,-3.348 -1.044,-0.936 -2.952,-0.936 -1.512,0 -2.88,0.468 -1.368,0.432 -2.556,1.008 l -0.972,-2.376 q 1.26,-0.684 2.988,-1.152 1.728,-0.504 3.6,-0.504 z m 0.936,10.296 q -3.6,0.144 -5.004,1.152 -1.368,1.008 -1.368,2.844 0,1.62 0.972,2.376 1.008,0.756 2.556,0.756 2.448,0 4.068,-1.332 1.62,-1.368 1.62,-4.176 v -1.728 z"
         id="path325"
         style="fill:#2a2e46;fill-opacity:1" />
      <path
         d="m 256.60791,45.768 q 0.72,0 1.476,-0.108 0.756,-0.144 1.224,-0.288 v 2.412 q -0.504,0.252 -1.44,0.396 -0.936,0.18 -1.8,0.18 -1.512,0 -2.808,-0.504 -1.26,-0.54 -2.052,-1.836 -0.792,-1.296 -0.792,-3.636 V 31.152 h -2.736 V 29.64 l 2.772,-1.26 1.26,-4.104 h 1.872 v 4.428 h 5.58 v 2.448 h -5.58 v 11.16 q 0,1.764 0.828,2.628 0.864,0.828 2.196,0.828 z"
         id="path327"
         style="fill:#2a2e46;fill-opacity:1" />
      <path
         d="m 287.92792,28.344 q 3.276,0 4.896,1.692 1.62,1.656 1.62,5.4 V 48 h -3.132 V 35.58 q 0,-4.572 -3.924,-4.572 -2.808,0 -4.032,1.62 -1.188,1.62 -1.188,4.716 V 48 h -3.132 V 35.58 q 0,-4.572 -3.96,-4.572 -2.916,0 -4.032,1.8 -1.116,1.8 -1.116,5.184 V 48 h -3.168 V 28.704 h 2.556 l 0.468,2.628 h 0.18 q 0.9,-1.512 2.412,-2.232 1.548,-0.756 3.276,-0.756 4.536,0 5.904,3.24 h 0.18 q 0.972,-1.656 2.628,-2.448 1.692,-0.792 3.564,-0.792 z"
         id="path329"
         style="fill:#2a2e46;fill-opacity:1" />
      <path
         d="m 311.4719,28.344 q 2.484,0 4.248,1.08 1.8,1.08 2.736,3.06 0.972,1.944 0.972,4.572 v 1.908 h -13.212 q 0.072,3.276 1.656,5.004 1.62,1.692 4.5,1.692 1.836,0 3.24,-0.324 1.44,-0.36 2.952,-1.008 V 47.1 q -1.476,0.648 -2.916,0.936 -1.44,0.324 -3.42,0.324 -2.736,0 -4.86,-1.116 -2.088,-1.116 -3.276,-3.312 -1.152,-2.232 -1.152,-5.436 0,-3.168 1.044,-5.436 1.08,-2.268 2.988,-3.492 1.944,-1.224 4.5,-1.224 z m -0.036,2.592 q -2.268,0 -3.6,1.476 -1.296,1.44 -1.548,4.032 h 9.828 q -0.036,-2.448 -1.152,-3.96 -1.116,-1.548 -3.528,-1.548 z"
         id="path331"
         style="fill:#2a2e46;fill-opacity:1" />
      <path
         d="m 335.66386,48.36 q -2.556,0 -4.572,-1.044 -1.98,-1.044 -3.132,-3.24 -1.116,-2.196 -1.116,-5.616 0,-3.564 1.188,-5.796 1.188,-2.232 3.204,-3.276 2.052,-1.044 4.644,-1.044 1.476,0 2.844,0.324 1.368,0.288 2.232,0.72 l -0.972,2.628 q -0.864,-0.324 -2.016,-0.612 -1.152,-0.288 -2.16,-0.288 -5.688,0 -5.688,7.308 0,3.492 1.368,5.364 1.404,1.836 4.14,1.836 1.584,0 2.772,-0.324 1.224,-0.324 2.232,-0.792 v 2.808 q -0.972,0.504 -2.16,0.756 -1.152,0.288 -2.808,0.288 z"
         id="path333"
         style="fill:#2a2e46;fill-opacity:1" />
      <path
         d="m 356.11187,28.38 q 3.528,0 5.22,1.548 1.692,1.548 1.692,4.932 V 48 h -2.304 l -0.612,-2.736 h -0.144 q -1.26,1.584 -2.664,2.34 -1.368,0.756 -3.816,0.756 -2.628,0 -4.356,-1.368 -1.728,-1.404 -1.728,-4.356 0,-2.88 2.268,-4.428 2.268,-1.584 6.984,-1.728 l 3.276,-0.108 V 35.22 q 0,-2.412 -1.044,-3.348 -1.044,-0.936 -2.952,-0.936 -1.512,0 -2.88,0.468 -1.368,0.432 -2.556,1.008 l -0.972,-2.376 q 1.26,-0.684 2.988,-1.152 1.728,-0.504 3.6,-0.504 z m 0.936,10.296 q -3.6,0.144 -5.004,1.152 -1.368,1.008 -1.368,2.844 0,1.62 0.972,2.376 1.008,0.756 2.556,0.756 2.448,0 4.068,-1.332 1.62,-1.368 1.62,-4.176 v -1.728 z"
         id="path335"
         style="fill:#2a2e46;fill-opacity:1" />
    </g>
  </g>
  <g
     id="Layer_2-2"
     data-name="Layer 2"
     transform="translate(0,-5.2)">
    <g
       id="g41">
      <path
         class="cls-8"
         d="M 70.94,64.22 15.48,45.73 C 6.24,42.65 0,33.99 0,24.25 v -7.33 l 57.07,19.02 c 8.28,2.76 13.87,10.51 13.87,19.24 v 9.03 z"
         id="path23"
         style="fill:#f6f6f6;fill-opacity:1" />
      <path
         class="cls-3"
         d="M 70.94,76.6 15.48,95.09 C 6.23,98.17 0,106.83 0,116.57 v 7.33 l 57.07,-19.02 c 8.28,-2.76 13.87,-10.51 13.87,-19.24 v -9.03 z"
         id="path25"
         style="fill:#2a2e46;fill-opacity:1" />
      <path
         class="cls-8"
         d="m 153.19,64.18 v 0.21 l 11.82,-0.03 h 11.82 c 0,0 35.47,-0.04 35.47,-0.04 l 11.82,-0.03 11.82,-0.03 v -0.09 c 4.31,0 8.34,-1.14 11.82,-3.17 3.57,-2.06 6.56,-5.04 8.63,-8.6 2.02,-3.48 3.18,-7.51 3.19,-11.82 h -11.82 c 0,0 -23.65,0.07 -23.65,0.07 l -11.82,0.03 h -32.74 c 0,0 -2.73,0.03 -2.73,0.03 h -2.81 c -3.26,0.38 -6.31,1.42 -9.01,3 -3.65,2.12 -6.7,5.18 -8.78,8.87 -1.94,3.43 -3.05,7.4 -3.05,11.61 z"
         id="path27"
         style="fill:#f6f6f6;fill-opacity:1" />
      <path
         class="cls-3"
         d="m 256.64,87.85 c -2.08,-3.69 -5.12,-6.75 -8.78,-8.87 -2.71,-1.58 -5.75,-2.61 -9.01,-3 h -5.54 c 0,0 -9.09,-0.03 -9.09,-0.03 L 188.75,75.92 165.1,75.87 h -11.82 c 0.01,4.3 1.17,8.33 3.19,11.81 2.08,3.56 5.06,6.54 8.63,8.6 3.48,2.02 7.51,3.17 11.82,3.17 v 0.09 l 11.82,0.03 35.47,0.03 11.82,0.03 h 11.82 c 0,0 11.82,0.04 11.82,0.04 v -0.21 c 0,-4.22 -1.1,-8.18 -3.05,-11.61 z"
         id="path29"
         style="fill:#2a2e46;fill-opacity:1" />
      <path
         class="cls-8"
         d="m 71.12,134.93 v 0.21 l 11.77,-0.03 h 11.77 c 0,0 11.77,-0.04 11.77,-0.04 l 118.19,1.29 11.77,-0.03 v -0.09 c 4.29,0 8.31,-1.14 11.77,-3.17 3.56,-2.06 6.53,-5.04 8.59,-8.6 2.01,-3.48 3.17,-7.51 3.18,-11.82 h -11.77 c 0,0 -23.55,0.07 -23.55,0.07 l -118.19,-1.29 h -9.05 c 0,0 -2.72,0.03 -2.72,0.03 h -2.8 c -3.24,0.38 -6.28,1.42 -8.97,3 -3.64,2.12 -6.67,5.18 -8.74,8.87 -1.94,3.43 -3.03,7.4 -3.03,11.61 z"
         id="path31"
         style="fill:#f6f6f6;fill-opacity:1" />
      <path
         class="cls-3"
         d="m 272.04,41.48 h -0.21 c 0,0 0.03,11.82 0.03,11.82 v 11.82 c 0,0 0.04,23.65 0.04,23.65 l 0.03,11.82 0.03,11.82 h 0.09 c 0,4.31 1.14,8.34 3.17,11.82 2.06,3.57 5.04,6.56 8.6,8.63 3.48,2.02 7.51,3.18 11.82,3.19 v -11.82 c 0,0 -0.07,-23.65 -0.07,-23.65 L 295.54,88.76 V 67.85 c 0,0 -0.03,-2.73 -0.03,-2.73 v -2.81 c -0.38,-3.26 -1.42,-6.31 -3,-9.01 -2.12,-3.65 -5.18,-6.7 -8.87,-8.78 -3.43,-1.94 -7.4,-3.05 -11.61,-3.05 z"
         id="path33"
         style="fill:#2a2e46;fill-opacity:1" />
      <path
         class="cls-3"
         d="m 71.08,28.8 v 0.21 l 11.77,-0.03 h 11.77 c 0,0 11.77,-0.04 11.77,-0.04 l 189.13,-0.03 11.77,-0.03 v -0.09 c 4.29,0 8.31,-1.14 11.77,-3.17 3.56,-2.06 6.53,-5.04 8.59,-8.6 2.01,-3.48 3.17,-7.51 3.18,-11.82 h -11.77 c 0,0 -23.55,0.07 -23.55,0.07 L 106.38,5.3 h -9.05 c 0,0 -2.72,0.03 -2.72,0.03 h -2.8 c -3.24,0.38 -6.28,1.42 -8.97,3 -3.64,2.12 -6.67,5.18 -8.74,8.87 -1.94,3.43 -3.03,7.4 -3.03,11.61 z"
         id="path35"
         style="fill:#2a2e46;fill-opacity:1" />
      <path
         class="cls-8"
         d="m 106.41,41.12 h 11.82 c 13.05,0 23.65,10.6 23.65,23.65 H 82.76 c 0,-13.05 10.6,-23.65 23.65,-23.65 z"
         id="path37"
         style="fill:#f6f6f6;fill-opacity:1" />
      <path
         class="cls-3"
         d="m 106.41,76.59 h 11.82 c 13.05,0 23.65,10.6 23.65,23.65 H 82.76 c 0,-13.05 10.6,-23.65 23.65,-23.65 z"
         transform="rotate(180,112.325,88.42)"
         id="path39"
         style="fill:#2a2e46;fill-opacity:1" />
    </g>
  </g>
</svg>
