<?xml version="1.0" encoding="UTF-8" standalone="no"?>
<svg
   id="Layer_2"
   data-name="Layer 2"
   viewBox="0 0 330.85 131.16"
   version="1.1"
   sodipodi:docname="logo_vost_blanc.svg"
   inkscape:version="1.2.2 (b0a8486541, 2022-12-01)"
   xmlns:inkscape="http://www.inkscape.org/namespaces/inkscape"
   xmlns:sodipodi="http://sodipodi.sourceforge.net/DTD/sodipodi-0.dtd"
   xmlns="http://www.w3.org/2000/svg"
   xmlns:svg="http://www.w3.org/2000/svg">
  <sodipodi:namedview
     id="namedview28"
     pagecolor="#ffffff"
     bordercolor="#666666"
     borderopacity="1.0"
     inkscape:showpageshadow="2"
     inkscape:pageopacity="0.0"
     inkscape:pagecheckerboard="0"
     inkscape:deskcolor="#d1d1d1"
     showgrid="false"
     inkscape:zoom="2.5791473"
     inkscape:cx="156.25319"
     inkscape:cy="71.922994"
     inkscape:window-width="1536"
     inkscape:window-height="800"
     inkscape:window-x="0"
     inkscape:window-y="0"
     inkscape:window-maximized="1"
     inkscape:current-layer="Layer_2" />
  <defs
     id="defs4">
    <style
       id="style2">
      .cls-1 {
        fill: #ffc801;
      }

      .cls-2 {
        fill: #101523;
      }
    </style>
  </defs>
  <g
     id="Layer_3"
     data-name="Layer 3"
     style="fill:#ffffff">
    <g
       id="g24"
       style="fill:#ffffff">
      <path
         class="cls-1"
         d="M70.94,59.01L15.48,40.52C6.24,37.44,0,28.79,0,19.04v-7.33L57.07,30.74c8.28,2.76,13.87,10.51,13.87,19.24v9.03Z"
         id="path6"
         style="fill:#ffffff" />
      <path
         class="cls-2"
         d="M70.94,71.4L15.48,89.88c-9.25,3.08-15.48,11.74-15.48,21.48v7.33l57.07-19.02c8.28-2.76,13.87-10.51,13.87-19.24v-9.03Z"
         id="path8"
         style="fill:#ffffff" />
      <path
         class="cls-1"
         d="M153.19,58.97v.21l11.82-.03h11.82s35.47-.04,35.47-.04l11.82-.03,11.82-.03v-.09c4.31,0,8.34-1.14,11.82-3.17,3.57-2.06,6.56-5.04,8.63-8.6,2.02-3.48,3.18-7.51,3.19-11.82h-11.82s-23.65,.07-23.65,.07l-11.82,.03h-32.74s-2.73,.03-2.73,.03h-2.81c-3.26,.38-6.31,1.42-9.01,3-3.65,2.12-6.7,5.18-8.78,8.87-1.94,3.43-3.05,7.4-3.05,11.61Z"
         id="path10"
         style="fill:#ffffff" />
      <path
         class="cls-2"
         d="M256.64,82.64c-2.08-3.69-5.12-6.75-8.78-8.87-2.71-1.58-5.75-2.61-9.01-3h-5.54s-9.09-.03-9.09-.03l-35.47-.03-23.65-.05h-11.82c.01,4.3,1.17,8.33,3.19,11.81,2.08,3.56,5.06,6.54,8.63,8.6,3.48,2.02,7.51,3.17,11.82,3.17v.09l11.82,.03,35.47,.03,11.82,.03h11.82s11.82,.04,11.82,.04v-.21c0-4.22-1.1-8.18-3.05-11.61Z"
         id="path12"
         style="fill:#ffffff" />
      <path
         class="cls-1"
         d="M71.12,129.73v.21l11.77-.03h11.77s11.77-.04,11.77-.04l118.19,1.29,11.77-.03v-.09c4.29,0,8.31-1.14,11.77-3.17,3.56-2.06,6.53-5.04,8.59-8.6,2.01-3.48,3.17-7.51,3.18-11.82h-11.77s-23.55,.07-23.55,.07l-118.19-1.29h-9.05s-2.72,.03-2.72,.03h-2.8c-3.24,.38-6.28,1.42-8.97,3-3.64,2.12-6.67,5.18-8.74,8.87-1.94,3.43-3.03,7.4-3.03,11.61Z"
         id="path14"
         style="fill:#ffffff" />
      <path
         class="cls-2"
         d="M272.04,36.27h-.21s.03,11.82,.03,11.82v11.82s.04,23.65,.04,23.65l.03,11.82,.03,11.82h.09c0,4.31,1.14,8.34,3.17,11.82,2.06,3.57,5.04,6.56,8.6,8.63,3.48,2.02,7.51,3.18,11.82,3.19v-11.82s-.07-23.65-.07-23.65l-.03-11.82v-20.91s-.03-2.73-.03-2.73v-2.81c-.38-3.26-1.42-6.31-3-9.01-2.12-3.65-5.18-6.7-8.87-8.78-3.43-1.94-7.4-3.05-11.61-3.05Z"
         id="path16"
         style="fill:#ffffff" />
      <path
         class="cls-2"
         d="M71.08,23.59v.21l11.77-.03h11.77s11.77-.04,11.77-.04l189.13-.03,11.77-.03v-.09c4.29,0,8.31-1.14,11.77-3.17,3.56-2.06,6.53-5.04,8.59-8.6,2.01-3.48,3.17-7.51,3.18-11.82h-11.77s-23.55,.07-23.55,.07l-189.13,.03h-9.05s-2.72,.03-2.72,.03h-2.8c-3.24,.38-6.28,1.42-8.97,3-3.64,2.12-6.67,5.18-8.74,8.87-1.94,3.43-3.03,7.4-3.03,11.61Z"
         id="path18"
         style="fill:#ffffff" />
      <path
         class="cls-1"
         d="M106.41,35.92h11.82c13.05,0,23.65,10.6,23.65,23.65h-59.12c0-13.05,10.6-23.65,23.65-23.65Z"
         id="path20"
         style="fill:#ffffff" />
      <path
         class="cls-2"
         d="M106.41,71.39h11.82c13.05,0,23.65,10.6,23.65,23.65h-59.12c0-13.05,10.6-23.65,23.65-23.65Z"
         transform="translate(224.65 166.42) rotate(-180)"
         id="path22"
         style="fill:#ffffff" />
    </g>
  </g>
</svg>
