<?xml version="1.0" encoding="UTF-8"?>
<svg id="Layer_2" data-name="Layer 2" xmlns="http://www.w3.org/2000/svg" viewBox="0 0 251.84 99.84">
  <defs>
    <style>
      .cls-1 {
        fill: #ffc801;
      }

      .cls-2 {
        fill: #2a2e46;
      }
    </style>
  </defs>
  <g id="Layer_2-2" data-name="Layer 2">
    <g>
      <path class="cls-1" d="M54,44.92L11.79,30.85C4.75,28.5,0,21.91,0,14.49v-5.58l43.44,14.48c6.3,2.1,10.56,8,10.56,14.65v6.87Z"/>
      <path class="cls-2" d="M54,54.35l-42.21,14.07c-7.04,2.35-11.79,8.93-11.79,16.35v5.58l43.44-14.48c6.3-2.1,10.56-8,10.56-14.65v-6.87Z"/>
      <path class="cls-1" d="M116.61,44.89v.16l9-.02h9s27-.03,27-.03l9-.02,9-.02v-.07c3.28,0,6.35-.87,9-2.41,2.72-1.57,4.99-3.84,6.57-6.55,1.54-2.65,2.42-5.72,2.43-9h-9s-18,.05-18,.05l-9,.02h-24.92s-2.08,.02-2.08,.02h-2.14c-2.48,.29-4.8,1.08-6.86,2.28-2.78,1.61-5.1,3.94-6.68,6.75-1.48,2.61-2.32,5.63-2.32,8.84Z"/>
      <path class="cls-2" d="M195.35,62.91c-1.58-2.81-3.9-5.14-6.68-6.75-2.06-1.2-4.38-1.99-6.86-2.28h-4.22s-6.92-.02-6.92-.02l-27-.02-18-.04h-9c.01,3.27,.89,6.34,2.43,8.99,1.58,2.71,3.85,4.98,6.57,6.55,2.65,1.54,5.72,2.41,9,2.41v.07l9,.02,27,.02,9,.02h9s9,.03,9,.03v-.16c0-3.21-.84-6.23-2.32-8.84Z"/>
      <path class="cls-1" d="M54.14,98.75v.16l8.96-.02h8.96s8.96-.03,8.96-.03l89.96,.98,8.96-.02v-.07c3.27,0,6.32-.87,8.96-2.41,2.71-1.57,4.97-3.84,6.54-6.55,1.53-2.65,2.41-5.72,2.42-9h-8.96s-17.92,.05-17.92,.05l-89.96-.98h-6.89s-2.07,.02-2.07,.02h-2.13c-2.47,.29-4.78,1.08-6.83,2.28-2.77,1.61-5.08,3.94-6.65,6.75-1.47,2.61-2.31,5.63-2.31,8.84Z"/>
      <path class="cls-2" d="M207.07,27.61h-.16s.02,9,.02,9v9s.03,18,.03,18l.02,9,.02,9h.07c0,3.28,.87,6.35,2.41,9,1.57,2.72,3.84,4.99,6.55,6.57,2.65,1.54,5.72,2.42,9,2.43v-9s-.05-18-.05-18l-.02-9v-15.92s-.02-2.08-.02-2.08v-2.14c-.29-2.48-1.08-4.8-2.28-6.86-1.61-2.78-3.94-5.1-6.75-6.68-2.61-1.48-5.63-2.32-8.84-2.32Z"/>
      <path class="cls-2" d="M54.1,17.96v.16l8.96-.02h8.96s8.96-.03,8.96-.03l143.96-.02,8.96-.02v-.07c3.27,0,6.32-.87,8.96-2.41,2.71-1.57,4.97-3.84,6.54-6.55,1.53-2.65,2.41-5.72,2.42-9h-8.96s-17.92,.05-17.92,.05l-143.96,.02h-6.89s-2.07,.02-2.07,.02h-2.13c-2.47,.29-4.78,1.08-6.83,2.28-2.77,1.61-5.08,3.94-6.65,6.75-1.47,2.61-2.31,5.63-2.31,8.84Z"/>
      <path class="cls-1" d="M81,27.34h9c9.93,0,18,8.07,18,18H63c0-9.93,8.07-18,18-18Z"/>
      <path class="cls-2" d="M81,54.34h9c9.93,0,18,8.07,18,18H63c0-9.93,8.07-18,18-18Z" transform="translate(171 126.68) rotate(180)"/>
    </g>
  </g>
</svg>