<?xml version="1.0" encoding="UTF-8" standalone="no"?>
<!-- Created with Inkscape (http://www.inkscape.org/) -->

<svg
   width="160mm"
   height="90mm"
   viewBox="0 0 160 90"
   version="1.1"
   id="svg5"
   xml:space="preserve"
   xmlns:xlink="http://www.w3.org/1999/xlink"
   xmlns="http://www.w3.org/2000/svg"
   xmlns:svg="http://www.w3.org/2000/svg"><defs
     id="defs2"><linearGradient
       id="linearGradient4489"><stop
         style="stop-color:#2a2e46;stop-opacity:1;"
         offset="0"
         id="stop4485" /><stop
         style="stop-color:#ffc801;stop-opacity:1;"
         offset="1"
         id="stop4487" /></linearGradient><style
       id="style2">
      .cls-1 {
        fill: #ffc801;
      }

      .cls-2 {
        fill: #101523;
      }
    </style><style
       id="style3421">
      .cls-1 {
        fill: #ffc801;
      }

      .cls-2 {
        fill: #2a2e46;
      }
    </style><linearGradient
       xlink:href="#linearGradient4489"
       id="linearGradient4651"
       x1="60.111378"
       y1="96.391609"
       x2="220.11137"
       y2="186.3916"
       gradientUnits="userSpaceOnUse" /></defs><g
     id="layer1"
     transform="translate(-60.111378,-96.391609)"><path
       id="rect234"
       style="fill:url(#linearGradient4651);stroke-width:0.895043;stroke-linecap:round"
       d="M 60.111378,96.391609 H 220.11138 V 186.39161 H 60.111378 Z" /><g
       id="g24"
       style="fill:#ffffff"
       transform="matrix(0.26458333,0,0,0.26458333,96.345326,124.04156)"><path
         class="cls-1"
         d="M 70.94,59.01 15.48,40.52 C 6.24,37.44 0,28.79 0,19.04 v -7.33 l 57.07,19.03 c 8.28,2.76 13.87,10.51 13.87,19.24 z"
         id="path6"
         style="fill:#ffffff" /><path
         class="cls-2"
         d="M 70.94,71.4 15.48,89.88 C 6.23,92.96 0,101.62 0,111.36 v 7.33 L 57.07,99.67 C 65.35,96.91 70.94,89.16 70.94,80.43 Z"
         id="path8"
         style="fill:#ffffff" /><path
         class="cls-1"
         d="m 153.19,58.97 v 0.21 l 11.82,-0.03 h 11.82 c 0,0 35.47,-0.04 35.47,-0.04 l 11.82,-0.03 11.82,-0.03 v -0.09 c 4.31,0 8.34,-1.14 11.82,-3.17 3.57,-2.06 6.56,-5.04 8.63,-8.6 2.02,-3.48 3.18,-7.51 3.19,-11.82 h -11.82 c 0,0 -23.65,0.07 -23.65,0.07 l -11.82,0.03 h -32.74 c 0,0 -2.73,0.03 -2.73,0.03 h -2.81 c -3.26,0.38 -6.31,1.42 -9.01,3 -3.65,2.12 -6.7,5.18 -8.78,8.87 -1.94,3.43 -3.05,7.4 -3.05,11.61 z"
         id="path10"
         style="fill:#ffffff" /><path
         class="cls-2"
         d="m 256.64,82.64 c -2.08,-3.69 -5.12,-6.75 -8.78,-8.87 -2.71,-1.58 -5.75,-2.61 -9.01,-3 h -5.54 c 0,0 -9.09,-0.03 -9.09,-0.03 L 188.75,70.71 165.1,70.66 h -11.82 c 0.01,4.3 1.17,8.33 3.19,11.81 2.08,3.56 5.06,6.54 8.63,8.6 3.48,2.02 7.51,3.17 11.82,3.17 v 0.09 l 11.82,0.03 35.47,0.03 11.82,0.03 h 11.82 c 0,0 11.82,0.04 11.82,0.04 v -0.21 c 0,-4.22 -1.1,-8.18 -3.05,-11.61 z"
         id="path12"
         style="fill:#ffffff" /><path
         class="cls-1"
         d="m 71.12,129.73 v 0.21 l 11.77,-0.03 h 11.77 c 0,0 11.77,-0.04 11.77,-0.04 l 118.19,1.29 11.77,-0.03 v -0.09 c 4.29,0 8.31,-1.14 11.77,-3.17 3.56,-2.06 6.53,-5.04 8.59,-8.6 2.01,-3.48 3.17,-7.51 3.18,-11.82 h -11.77 c 0,0 -23.55,0.07 -23.55,0.07 l -118.19,-1.29 h -9.05 c 0,0 -2.72,0.03 -2.72,0.03 h -2.8 c -3.24,0.38 -6.28,1.42 -8.97,3 -3.64,2.12 -6.67,5.18 -8.74,8.87 -1.94,3.43 -3.03,7.4 -3.03,11.61 z"
         id="path14"
         style="fill:#ffffff" /><path
         class="cls-2"
         d="m 272.04,36.27 h -0.21 c 0,0 0.03,11.82 0.03,11.82 v 11.82 c 0,0 0.04,23.65 0.04,23.65 l 0.03,11.82 0.03,11.82 h 0.09 c 0,4.31 1.14,8.34 3.17,11.82 2.06,3.57 5.04,6.56 8.6,8.63 3.48,2.02 7.51,3.18 11.82,3.19 v -11.82 c 0,0 -0.07,-23.65 -0.07,-23.65 L 295.54,83.55 V 62.64 c 0,0 -0.03,-2.73 -0.03,-2.73 V 57.1 c -0.38,-3.26 -1.42,-6.31 -3,-9.01 -2.12,-3.65 -5.18,-6.7 -8.87,-8.78 -3.43,-1.94 -7.4,-3.05 -11.61,-3.05 z"
         id="path16"
         style="fill:#ffffff" /><path
         class="cls-2"
         d="m 71.08,23.59 v 0.21 l 11.77,-0.03 h 11.77 c 0,0 11.77,-0.04 11.77,-0.04 l 189.13,-0.03 11.77,-0.03 v -0.09 c 4.29,0 8.31,-1.14 11.77,-3.17 3.56,-2.06 6.53,-5.04 8.59,-8.6 2.01,-3.48 3.17,-7.51 3.18,-11.82 h -11.77 c 0,0 -23.55,0.07 -23.55,0.07 L 106.38,0.09 h -9.05 c 0,0 -2.72,0.03 -2.72,0.03 h -2.8 c -3.24,0.38 -6.28,1.42 -8.97,3 -3.64,2.12 -6.67,5.18 -8.74,8.87 -1.94,3.43 -3.03,7.4 -3.03,11.61 z"
         id="path18"
         style="fill:#ffffff" /><path
         class="cls-1"
         d="m 106.41,35.92 h 11.82 c 13.05,0 23.65,10.6 23.65,23.65 H 82.76 c 0,-13.05 10.6,-23.65 23.65,-23.65 z"
         id="path20"
         style="fill:#ffffff" /><path
         class="cls-2"
         d="m 106.41,71.39 h 11.82 c 13.05,0 23.65,10.6 23.65,23.65 H 82.76 c 0,-13.05 10.6,-23.65 23.65,-23.65 z"
         transform="rotate(180,112.325,83.21)"
         id="path22"
         style="fill:#ffffff" /></g></g></svg>
